<svg xmlns="http://www.w3.org/2000/svg" xmlns:xlink="http://www.w3.org/1999/xlink" width="500" zoomAndPan="magnify" viewBox="0 0 375 187.499995" height="250" preserveAspectRatio="xMidYMid meet" version="1.0"><defs><clipPath id="c9b1ef2fcf"><path d="M 9 0 L 373 0 L 373 178.773438 L 9 178.773438 Z M 9 0 " clip-rule="nonzero"/></clipPath></defs><g clip-path="url(#c9b1ef2fcf)"><path fill="#292b2d" d="M 248.832031 1.175781 L 243.421875 0.683594 C 232.535156 1.332031 225.0625 3.304688 221.003906 6.609375 C 215.382812 9.953125 210.039062 14.710938 204.980469 20.878906 C 189.847656 13.058594 174.722656 7.242188 159.605469 3.433594 C 151.253906 1.140625 142.585938 1.652344 133.601562 4.96875 C 123.015625 10.375 116.246094 16.296875 113.292969 22.738281 C 108.804688 29.882812 105.054688 38.953125 102.042969 49.949219 C 100.628906 50.574219 99.03125 50.777344 97.242188 50.550781 C 87.121094 47.203125 79.941406 45.410156 75.707031 45.171875 C 70.996094 44.96875 67.367188 45.601562 64.816406 47.074219 C 56.160156 52.945312 53.046875 62.179688 55.46875 74.789062 C 42.929688 79.273438 34.65625 83.253906 30.644531 86.722656 C 24.816406 90.804688 19.625 95.609375 15.066406 101.136719 C 5.386719 115.183594 8.117188 129.027344 23.265625 142.675781 C 28.035156 146.824219 32.953125 150.609375 38.027344 154.023438 L 45.746094 158.863281 C 50.972656 161.910156 56.347656 164.585938 61.875 166.890625 C 71.597656 171.359375 84.59375 174.640625 100.859375 176.738281 C 111.613281 177.507812 123.074219 175.199219 135.246094 169.808594 C 144.570312 166.492188 149.648438 161.394531 150.484375 154.515625 C 158.980469 169.332031 172.589844 177.164062 191.308594 178.015625 C 211.402344 178.3125 225.425781 176.824219 233.382812 173.5625 L 240.929688 170.777344 C 245.808594 168.699219 250.382812 166.171875 254.644531 163.199219 C 258.910156 160.230469 262.867188 156.8125 266.515625 152.945312 C 270.328125 165.964844 284.640625 174.253906 309.453125 177.816406 C 330.015625 178.179688 346.070312 172.289062 357.621094 160.148438 C 361.097656 155.742188 362.792969 151.191406 362.695312 146.496094 C 360.75 141.332031 356.851562 136.109375 351 130.824219 C 366.628906 114 373.847656 100.773438 372.65625 91.144531 C 372.09375 81.882812 369.59375 73.445312 365.15625 65.832031 C 361.863281 60.222656 354.820312 57.363281 344.035156 57.253906 C 334.703125 57.335938 322.6875 59.808594 307.980469 64.671875 C 305.558594 48.125 301.839844 37.253906 296.816406 32.058594 C 287.964844 22.6875 280.445312 15.929688 274.261719 11.789062 C 265.738281 6.570312 260.636719 3.886719 258.957031 3.738281 C 255.574219 2.511719 252.195312 1.65625 248.832031 1.175781 " fill-opacity="1" fill-rule="nonzero"/></g></svg>